<svg width="193" height="89" viewBox="0 0 193 89" fill="none" xmlns="http://www.w3.org/2000/svg">
<g filter="url(#filter0_d_3939_16724)">
<path d="M20.1094 39.4622C20.1094 32.2063 28.3616 29.1325 32.2428 34.9426L43.8019 52.2464C45.4001 54.6387 48.798 53.3729 48.798 50.3852V39.5239H52.7615V50.3852C52.7615 57.641 44.5094 60.7149 40.6282 54.9048L29.0691 37.601C27.4709 35.2086 24.073 36.4745 24.073 39.4622V68.6158H20.1094V39.4622Z" fill="#BC91C2"/>
</g>
<g filter="url(#filter1_d_3939_16724)">
<path d="M48.7969 26.8712C48.7969 22.7903 51.8383 19.096 55.8035 19.6925C70.7214 21.9365 78.8177 34.1827 78.3716 46.1458C78.1492 52.1101 75.7884 57.9044 71.2008 62.121C66.6196 66.3317 59.9623 68.844 51.3016 68.6146L49.3204 68.5621L49.4141 64.1249L51.3953 64.1774C59.3298 64.3876 64.9945 62.0833 68.6863 58.6901C72.3715 55.3029 74.2348 50.7058 74.4117 45.9608C74.7643 36.5053 68.3609 26.0598 55.2757 24.0914C54.0343 23.9047 52.7604 25.0693 52.7603 26.8712V31.5529H48.7969V26.8712Z" fill="#351938"/>
</g>
<g filter="url(#filter2_d_3939_16724)">
<path d="M87.7368 46.3613C87.4002 46.3613 87.1172 46.2466 86.8877 46.0171C86.6736 45.7877 86.5665 45.5047 86.5665 45.1681V29.6334C86.5665 29.2815 86.6736 28.9985 86.8877 28.7843C87.1172 28.5549 87.4002 28.4401 87.7368 28.4401C88.1039 28.4401 88.4099 28.5855 88.6546 28.8761L98.6593 42.1851V29.6334C98.6593 29.2815 98.774 28.9985 99.0035 28.7843C99.2329 28.5549 99.5159 28.4401 99.8525 28.4401C100.204 28.4401 100.487 28.5549 100.702 28.7843C100.916 28.9985 101.023 29.2815 101.023 29.6334V45.1681C101.023 45.5047 100.916 45.7877 100.702 46.0171C100.487 46.2466 100.204 46.3613 99.8525 46.3613C99.6995 46.3613 99.5312 46.3307 99.3477 46.2695C99.1794 46.1931 99.0417 46.086 98.9346 45.9483L88.93 32.6393V45.1681C88.93 45.5047 88.8152 45.7877 88.5858 46.0171C88.3716 46.2466 88.0886 46.3613 87.7368 46.3613ZM113.898 46.5908C112.551 46.5908 111.32 46.369 110.203 45.9253C109.086 45.4664 108.123 44.8316 107.312 44.0208C106.516 43.1947 105.897 42.2233 105.453 41.1066C105.01 39.9746 104.788 38.7355 104.788 37.3893C104.788 36.0431 105.01 34.8116 105.453 33.6949C105.897 32.5782 106.516 31.6144 107.312 30.8036C108.123 29.9776 109.086 29.3427 110.203 28.8991C111.32 28.4401 112.551 28.2107 113.898 28.2107C115.244 28.2107 116.468 28.4401 117.569 28.8991C118.686 29.3427 119.649 29.9776 120.46 30.8036C121.271 31.6144 121.898 32.5782 122.342 33.6949C122.785 34.8116 123.007 36.0431 123.007 37.3893C123.007 38.7355 122.785 39.9746 122.342 41.1066C121.898 42.2233 121.271 43.1947 120.46 44.0208C119.649 44.8316 118.686 45.4664 117.569 45.9253C116.468 46.369 115.244 46.5908 113.898 46.5908ZM113.898 44.4338C114.892 44.4338 115.802 44.2579 116.628 43.9061C117.47 43.5389 118.196 43.0417 118.808 42.4145C119.42 41.772 119.887 41.0225 120.208 40.1658C120.544 39.3091 120.713 38.3836 120.713 37.3893C120.713 36.3949 120.544 35.4694 120.208 34.6127C119.887 33.7561 119.42 33.0141 118.808 32.3869C118.196 31.7444 117.47 31.2473 116.628 30.8954C115.802 30.5436 114.892 30.3676 113.898 30.3676C112.903 30.3676 111.985 30.5436 111.144 30.8954C110.318 31.2473 109.599 31.7444 108.987 32.3869C108.39 33.0141 107.924 33.7561 107.587 34.6127C107.251 35.4694 107.082 36.3949 107.082 37.3893C107.082 38.3836 107.251 39.3091 107.587 40.1658C107.924 41.0225 108.39 41.772 108.987 42.4145C109.599 43.0417 110.318 43.5389 111.144 43.9061C111.985 44.2579 112.903 44.4338 113.898 44.4338ZM132.671 46.3613C132.181 46.3613 131.822 46.1089 131.592 45.6041L124.869 30.23C124.655 29.7098 124.632 29.2815 124.8 28.945C124.968 28.6084 125.29 28.4401 125.764 28.4401C126.299 28.4401 126.666 28.6773 126.865 29.1515L132.763 43.3094H132.51L138.522 29.1515C138.644 28.8761 138.782 28.6926 138.935 28.6008C139.103 28.4937 139.325 28.4401 139.601 28.4401C140.06 28.4401 140.373 28.6084 140.541 28.945C140.725 29.2662 140.725 29.6257 140.541 30.0235L133.749 45.6041C133.642 45.8489 133.497 46.0401 133.313 46.1778C133.145 46.3001 132.931 46.3613 132.671 46.3613ZM144.633 46.3613C144.296 46.3613 144.013 46.2466 143.784 46.0171C143.554 45.7877 143.44 45.5047 143.44 45.1681V29.6334C143.44 29.2815 143.554 28.9985 143.784 28.7843C144.013 28.5549 144.296 28.4401 144.633 28.4401H155.005C155.357 28.4401 155.64 28.5472 155.854 28.7614C156.068 28.9603 156.175 29.228 156.175 29.5645C156.175 29.8858 156.068 30.1458 155.854 30.3447C155.64 30.5436 155.357 30.643 155.005 30.643H145.826V36.219H152.412C152.764 36.219 153.047 36.3261 153.261 36.5402C153.475 36.7391 153.582 36.9992 153.582 37.3204C153.582 37.6417 153.475 37.9094 153.261 38.1235C153.047 38.3224 152.764 38.4219 152.412 38.4219H145.826V44.1585H155.005C155.357 44.1585 155.64 44.2579 155.854 44.4568C156.068 44.6556 156.175 44.9157 156.175 45.237C156.175 45.5735 156.068 45.8489 155.854 46.063C155.64 46.2619 155.357 46.3613 155.005 46.3613H144.633ZM160.677 46.3613C160.34 46.3613 160.057 46.2466 159.828 46.0171C159.614 45.7877 159.507 45.5047 159.507 45.1681V29.6334C159.507 29.2968 159.621 29.0138 159.851 28.7843C160.08 28.5549 160.356 28.4401 160.677 28.4401C161.013 28.4401 161.296 28.5549 161.526 28.7843C161.755 29.0138 161.87 29.2968 161.87 29.6334V43.9749H170.177C170.513 43.9749 170.796 44.0896 171.026 44.3191C171.255 44.5486 171.37 44.8316 171.37 45.1681C171.37 45.5047 171.255 45.7877 171.026 46.0171C170.796 46.2466 170.513 46.3613 170.177 46.3613H160.677Z" fill="#261228"/>
</g>
<g filter="url(#filter3_d_3939_16724)">
<path d="M85.7839 61.3613C85.6276 61.3613 85.4961 61.308 85.3896 61.2015C85.283 61.0949 85.2297 60.9635 85.2297 60.8072V53.5926C85.2297 53.4292 85.283 53.2978 85.3896 53.1983C85.4961 53.0917 85.6276 53.0385 85.7839 53.0385H87.7127C88.3237 53.0385 88.8779 53.1415 89.3752 53.3475C89.8796 53.5464 90.3165 53.8342 90.6859 54.2107C91.0554 54.5801 91.3396 55.0171 91.5385 55.5215C91.7374 56.0259 91.8369 56.5836 91.8369 57.1946C91.8369 57.8056 91.7374 58.3668 91.5385 58.8783C91.3396 59.3827 91.0554 59.8232 90.6859 60.1998C90.3165 60.5692 89.8796 60.8569 89.3752 61.0629C88.8779 61.2619 88.3237 61.3613 87.7127 61.3613H85.7839ZM86.338 60.3809H87.7127C88.3095 60.3809 88.8352 60.2459 89.2899 59.976C89.7517 59.6989 90.114 59.3224 90.3769 58.8464C90.6398 58.3633 90.7712 57.8127 90.7712 57.1946C90.7712 56.5694 90.6398 56.0188 90.3769 55.5428C90.114 55.0668 89.7517 54.6938 89.2899 54.4238C88.8352 54.1539 88.3095 54.0189 87.7127 54.0189H86.338V60.3809ZM94.1302 61.3613C93.9739 61.3613 93.8425 61.308 93.7359 61.2015C93.6294 61.0949 93.5761 60.9635 93.5761 60.8072V53.5926C93.5761 53.4292 93.6294 53.2978 93.7359 53.1983C93.8425 53.0917 93.9739 53.0385 94.1302 53.0385H96.0484C96.5813 53.0385 97.0537 53.1521 97.4658 53.3795C97.8778 53.5997 98.1975 53.9052 98.4249 54.296C98.6593 54.6867 98.7765 55.1414 98.7765 55.66C98.7765 56.1431 98.6593 56.5729 98.4249 56.9495C98.1975 57.326 97.8778 57.6208 97.4658 57.834C97.0537 58.0471 96.5813 58.1537 96.0484 58.1537H94.6844V60.8072C94.6844 60.9635 94.6311 61.0949 94.5245 61.2015C94.4251 61.308 94.2936 61.3613 94.1302 61.3613ZM98.5527 61.3613C98.4533 61.3613 98.3609 61.34 98.2757 61.2974C98.1975 61.2548 98.13 61.1873 98.0732 61.0949L96.155 58.0045L97.2313 57.6954L98.979 60.5088C99.1069 60.7148 99.1246 60.9102 99.0323 61.0949C98.9399 61.2725 98.7801 61.3613 98.5527 61.3613ZM94.6844 57.1306H96.0484C96.3752 57.1306 96.663 57.0702 96.9116 56.9495C97.1603 56.8216 97.3556 56.6475 97.4977 56.4273C97.6398 56.1999 97.7109 55.9442 97.7109 55.66C97.7109 55.3474 97.6398 55.0703 97.4977 54.8288C97.3556 54.5872 97.1603 54.399 96.9116 54.264C96.663 54.129 96.3752 54.0615 96.0484 54.0615H94.6844V57.1306ZM100.863 61.3613C100.707 61.3613 100.576 61.308 100.469 61.2015C100.363 61.0949 100.309 60.9635 100.309 60.8072V53.5926C100.309 53.4292 100.363 53.2978 100.469 53.1983C100.576 53.0917 100.707 53.0385 100.863 53.0385H105.68C105.844 53.0385 105.975 53.0882 106.075 53.1877C106.174 53.28 106.224 53.4043 106.224 53.5606C106.224 53.7098 106.174 53.8306 106.075 53.923C105.975 54.0153 105.844 54.0615 105.68 54.0615H101.418V56.6511H104.476C104.64 56.6511 104.771 56.7008 104.87 56.8003C104.97 56.8926 105.02 57.0134 105.02 57.1626C105.02 57.3118 104.97 57.4361 104.87 57.5356C104.771 57.6279 104.64 57.6741 104.476 57.6741H101.418V60.3383H105.68C105.844 60.3383 105.975 60.3845 106.075 60.4768C106.174 60.5692 106.224 60.69 106.224 60.8392C106.224 60.9954 106.174 61.1233 106.075 61.2228C105.975 61.3151 105.844 61.3613 105.68 61.3613H100.863ZM107.441 61.3613C107.242 61.3613 107.089 61.2761 106.982 61.1056C106.876 60.9351 106.865 60.7539 106.951 60.5621L109.945 53.4114C110.052 53.1628 110.226 53.0385 110.467 53.0385C110.723 53.0385 110.897 53.1628 110.989 53.4114L113.995 60.5834C114.073 60.7823 114.059 60.9635 113.952 61.1269C113.853 61.2832 113.7 61.3613 113.494 61.3613C113.387 61.3613 113.284 61.3329 113.185 61.2761C113.092 61.2121 113.025 61.1269 112.982 61.0203L110.339 54.4558H110.638L107.952 61.0203C107.903 61.134 107.828 61.2192 107.728 61.2761C107.636 61.3329 107.54 61.3613 107.441 61.3613ZM108.006 59.5284L108.432 58.6119H112.609L113.035 59.5284H108.006ZM115.818 61.3613C115.662 61.3613 115.53 61.308 115.424 61.2015C115.317 61.0949 115.264 60.9635 115.264 60.8072V53.5926C115.264 53.4292 115.317 53.2978 115.424 53.1983C115.53 53.0917 115.662 53.0385 115.818 53.0385C116.031 53.0385 116.195 53.1379 116.308 53.3369L119.644 60.0186H119.303L122.553 53.3369C122.667 53.1379 122.83 53.0385 123.043 53.0385C123.2 53.0385 123.331 53.0917 123.438 53.1983C123.544 53.2978 123.598 53.4292 123.598 53.5926V60.8072C123.598 60.9635 123.541 61.0949 123.427 61.2015C123.321 61.308 123.193 61.3613 123.043 61.3613C122.887 61.3613 122.756 61.308 122.649 61.2015C122.543 61.0949 122.489 60.9635 122.489 60.8072V55.1272L122.702 55.0739L119.91 60.7646C119.79 60.9493 119.63 61.0416 119.431 61.0416C119.196 61.0416 119.026 60.9315 118.919 60.7113L116.159 55.1805L116.372 55.1272V60.8072C116.372 60.9635 116.319 61.0949 116.213 61.2015C116.106 61.308 115.975 61.3613 115.818 61.3613ZM129.356 61.3613C129.214 61.3613 129.093 61.3151 128.994 61.2228C128.902 61.1233 128.855 61.0026 128.855 60.8605V53.5393C128.855 53.3901 128.902 53.2694 128.994 53.177C129.093 53.0846 129.214 53.0385 129.356 53.0385C129.506 53.0385 129.626 53.0846 129.719 53.177C129.811 53.2694 129.857 53.3901 129.857 53.5393V56.7044H134.898V53.5393C134.898 53.3901 134.944 53.2694 135.036 53.177C135.136 53.0846 135.257 53.0385 135.399 53.0385C135.548 53.0385 135.669 53.0846 135.761 53.177C135.853 53.2694 135.9 53.3901 135.9 53.5393V60.8605C135.9 61.0026 135.853 61.1233 135.761 61.2228C135.669 61.3151 135.548 61.3613 135.399 61.3613C135.257 61.3613 135.136 61.3151 135.036 61.2228C134.944 61.1233 134.898 61.0026 134.898 60.8605V57.5889H129.857V60.8605C129.857 61.0026 129.811 61.1233 129.719 61.2228C129.626 61.3151 129.506 61.3613 129.356 61.3613ZM141.881 61.4679C141.256 61.4679 140.684 61.3649 140.166 61.1589C139.647 60.9457 139.2 60.6473 138.823 60.2637C138.454 59.8801 138.162 59.4289 137.949 58.9103C137.743 58.3917 137.64 57.8198 137.64 57.1946C137.64 56.5765 137.743 56.0081 137.949 55.4895C138.162 54.9709 138.454 54.5197 138.823 54.1361C139.2 53.7525 139.647 53.4576 140.166 53.2516C140.684 53.0385 141.256 52.9319 141.881 52.9319C142.5 52.9319 143.068 53.0385 143.587 53.2516C144.105 53.4576 144.553 53.7525 144.929 54.1361C145.306 54.5197 145.597 54.9709 145.803 55.4895C146.016 56.0081 146.123 56.5765 146.123 57.1946C146.123 57.8198 146.016 58.3917 145.803 58.9103C145.597 59.4289 145.306 59.8801 144.929 60.2637C144.553 60.6473 144.105 60.9457 143.587 61.1589C143.068 61.3649 142.5 61.4679 141.881 61.4679ZM141.881 60.5514C142.357 60.5514 142.794 60.4662 143.192 60.2957C143.59 60.1252 143.935 59.8907 144.226 59.5923C144.524 59.2868 144.752 58.9316 144.908 58.5267C145.071 58.1146 145.153 57.6706 145.153 57.1946C145.153 56.7186 145.071 56.2781 144.908 55.8731C144.752 55.4682 144.524 55.113 144.226 54.8075C143.935 54.502 143.59 54.2675 143.192 54.1041C142.794 53.9336 142.357 53.8484 141.881 53.8484C141.405 53.8484 140.969 53.9336 140.571 54.1041C140.173 54.2675 139.828 54.502 139.537 54.8075C139.246 55.113 139.018 55.4682 138.855 55.8731C138.692 56.2781 138.61 56.7186 138.61 57.1946C138.61 57.6706 138.692 58.1146 138.855 58.5267C139.018 58.9316 139.246 59.2868 139.537 59.5923C139.828 59.8907 140.173 60.1252 140.571 60.2957C140.969 60.4662 141.405 60.5514 141.881 60.5514ZM148.349 61.3613C148.207 61.3613 148.086 61.3151 147.987 61.2228C147.894 61.1233 147.848 61.0026 147.848 60.8605V53.5393C147.848 53.3901 147.894 53.2694 147.987 53.177C148.086 53.0846 148.207 53.0385 148.349 53.0385C148.548 53.0385 148.697 53.1273 148.797 53.3049L152.228 60.1571H151.876L155.233 53.3049C155.34 53.1273 155.489 53.0385 155.681 53.0385C155.823 53.0385 155.94 53.0846 156.032 53.177C156.132 53.2694 156.182 53.3901 156.182 53.5393V60.8605C156.182 61.0026 156.132 61.1233 156.032 61.2228C155.933 61.3151 155.816 61.3613 155.681 61.3613C155.539 61.3613 155.418 61.3151 155.318 61.2228C155.226 61.1233 155.18 61.0026 155.18 60.8605V54.8927L155.372 54.8714L152.452 60.8392C152.345 61.0097 152.2 61.0949 152.015 61.0949C151.802 61.0949 151.649 60.9919 151.557 60.7859L148.637 54.946L148.85 54.8927V60.8605C148.85 61.0026 148.8 61.1233 148.701 61.2228C148.608 61.3151 148.491 61.3613 148.349 61.3613ZM158.818 61.3613C158.676 61.3613 158.555 61.3151 158.456 61.2228C158.364 61.1233 158.317 61.0026 158.317 60.8605V53.5393C158.317 53.3901 158.364 53.2694 158.456 53.177C158.555 53.0846 158.676 53.0385 158.818 53.0385H163.71C163.852 53.0385 163.969 53.0846 164.061 53.177C164.154 53.2623 164.2 53.3759 164.2 53.518C164.2 53.6459 164.154 53.756 164.061 53.8484C163.969 53.9336 163.852 53.9763 163.71 53.9763H159.319V56.7044H162.484C162.633 56.7044 162.751 56.7505 162.836 56.8429C162.928 56.9282 162.974 57.0383 162.974 57.1733C162.974 57.3082 162.928 57.4219 162.836 57.5143C162.751 57.5995 162.633 57.6421 162.484 57.6421H159.319V60.4235H163.71C163.852 60.4235 163.969 60.4697 164.061 60.5621C164.154 60.6473 164.2 60.7539 164.2 60.8818C164.2 61.0239 164.154 61.1411 164.061 61.2334C163.969 61.3187 163.852 61.3613 163.71 61.3613H158.818ZM168.359 61.4679C167.904 61.4679 167.474 61.4004 167.069 61.2654C166.672 61.1233 166.323 60.928 166.025 60.6793C165.727 60.4306 165.506 60.1394 165.364 59.8055C165.293 59.6705 165.29 59.5461 165.354 59.4325C165.425 59.3188 165.538 59.2442 165.695 59.2087C165.815 59.1803 165.933 59.198 166.046 59.262C166.16 59.3188 166.245 59.4076 166.302 59.5284C166.394 59.7202 166.54 59.8943 166.739 60.0506C166.938 60.1998 167.176 60.3205 167.453 60.4129C167.737 60.5052 168.039 60.5514 168.359 60.5514C168.714 60.5514 169.034 60.4946 169.318 60.3809C169.609 60.2672 169.84 60.1038 170.011 59.8907C170.188 59.6705 170.277 59.4041 170.277 59.0915C170.277 58.6936 170.124 58.3419 169.819 58.0364C169.513 57.731 169.023 57.5391 168.348 57.461C167.489 57.3686 166.814 57.1093 166.323 56.683C165.833 56.2568 165.588 55.7311 165.588 55.1059C165.588 54.6512 165.712 54.264 165.961 53.9443C166.21 53.6175 166.551 53.3688 166.984 53.1983C167.418 53.0278 167.908 52.9426 168.455 52.9426C168.867 52.9426 169.233 53.0029 169.552 53.1237C169.879 53.2445 170.16 53.4114 170.394 53.6246C170.636 53.8306 170.842 54.0686 171.012 54.3386C171.098 54.4807 171.13 54.6157 171.108 54.7435C171.094 54.8643 171.03 54.9602 170.916 55.0313C170.789 55.1023 170.654 55.1165 170.512 55.0739C170.377 55.0313 170.274 54.9496 170.202 54.8288C170.096 54.637 169.961 54.47 169.798 54.3279C169.634 54.1858 169.439 54.0722 169.211 53.9869C168.991 53.9017 168.728 53.859 168.423 53.859C167.883 53.8519 167.439 53.9585 167.091 54.1787C166.743 54.3919 166.569 54.7151 166.569 55.1485C166.569 55.3758 166.625 55.589 166.739 55.7879C166.86 55.9797 167.066 56.1502 167.357 56.2994C167.656 56.4415 168.071 56.5445 168.604 56.6085C169.464 56.7079 170.121 56.9708 170.575 57.397C171.03 57.8162 171.257 58.3704 171.257 59.0595C171.257 59.4573 171.179 59.8055 171.023 60.1038C170.874 60.4022 170.664 60.6544 170.394 60.8605C170.124 61.0594 169.812 61.2121 169.456 61.3187C169.108 61.4182 168.742 61.4679 168.359 61.4679Z" fill="#261228"/>
</g>
<defs>
<filter id="filter0_d_3939_16724" x="18.2865" y="30.0795" width="36.2941" height="40.359" filterUnits="userSpaceOnUse" color-interpolation-filters="sRGB">
<feFlood flood-opacity="0" result="BackgroundImageFix"/>
<feColorMatrix in="SourceAlpha" type="matrix" values="0 0 0 0 0 0 0 0 0 0 0 0 0 0 0 0 0 0 127 0" result="hardAlpha"/>
<feOffset/>
<feGaussianBlur stdDeviation="0.911416"/>
<feComposite in2="hardAlpha" operator="out"/>
<feColorMatrix type="matrix" values="0 0 0 0 0 0 0 0 0 0 0 0 0 0 0 0 0 0 0.6 0"/>
<feBlend mode="normal" in2="BackgroundImageFix" result="effect1_dropShadow_3939_16724"/>
<feBlend mode="normal" in="SourceGraphic" in2="effect1_dropShadow_3939_16724" result="shape"/>
</filter>
<filter id="filter1_d_3939_16724" x="46.974" y="17.8061" width="33.2394" height="52.6459" filterUnits="userSpaceOnUse" color-interpolation-filters="sRGB">
<feFlood flood-opacity="0" result="BackgroundImageFix"/>
<feColorMatrix in="SourceAlpha" type="matrix" values="0 0 0 0 0 0 0 0 0 0 0 0 0 0 0 0 0 0 127 0" result="hardAlpha"/>
<feOffset/>
<feGaussianBlur stdDeviation="0.911416"/>
<feComposite in2="hardAlpha" operator="out"/>
<feColorMatrix type="matrix" values="0 0 0 0 0 0 0 0 0 0 0 0 0 0 0 0 0 0 0.6 0"/>
<feBlend mode="normal" in2="BackgroundImageFix" result="effect1_dropShadow_3939_16724"/>
<feBlend mode="normal" in="SourceGraphic" in2="effect1_dropShadow_3939_16724" result="shape"/>
</filter>
<filter id="filter2_d_3939_16724" x="83.0451" y="24.6855" width="91.8472" height="25.4305" filterUnits="userSpaceOnUse" color-interpolation-filters="sRGB">
<feFlood flood-opacity="0" result="BackgroundImageFix"/>
<feColorMatrix in="SourceAlpha" type="matrix" values="0 0 0 0 0 0 0 0 0 0 0 0 0 0 0 0 0 0 127 0" result="hardAlpha"/>
<feOffset/>
<feGaussianBlur stdDeviation="1.76259"/>
<feComposite in2="hardAlpha" operator="out"/>
<feColorMatrix type="matrix" values="0 0 0 0 0 0 0 0 0 0 0 0 0 0 0 0 0 0 0.45 0"/>
<feBlend mode="normal" in2="BackgroundImageFix" result="effect1_dropShadow_3939_16724"/>
<feBlend mode="normal" in="SourceGraphic" in2="effect1_dropShadow_3939_16724" result="shape"/>
</filter>
<filter id="filter3_d_3939_16724" x="84.3962" y="52.1015" width="87.6919" height="10.1966" filterUnits="userSpaceOnUse" color-interpolation-filters="sRGB">
<feFlood flood-opacity="0" result="BackgroundImageFix"/>
<feColorMatrix in="SourceAlpha" type="matrix" values="0 0 0 0 0 0 0 0 0 0 0 0 0 0 0 0 0 0 127 0" result="hardAlpha"/>
<feOffset/>
<feGaussianBlur stdDeviation="0.415174"/>
<feComposite in2="hardAlpha" operator="out"/>
<feColorMatrix type="matrix" values="0 0 0 0 0 0 0 0 0 0 0 0 0 0 0 0 0 0 0.45 0"/>
<feBlend mode="normal" in2="BackgroundImageFix" result="effect1_dropShadow_3939_16724"/>
<feBlend mode="normal" in="SourceGraphic" in2="effect1_dropShadow_3939_16724" result="shape"/>
</filter>
</defs>
</svg>
