<svg width="15" height="11" viewBox="0 0 15 11" fill="none" xmlns="http://www.w3.org/2000/svg">
<path d="M13.7315 0H0.549258C0.403586 0 0.26388 0.0578682 0.160874 0.160874C0.0578681 0.26388 0 0.403586 0 0.549258V9.88665C0 10.178 0.115736 10.4574 0.321748 10.6634C0.52776 10.8694 0.807172 10.9852 1.09852 10.9852H13.1822C13.4735 10.9852 13.753 10.8694 13.959 10.6634C14.165 10.4574 14.2807 10.178 14.2807 9.88665V0.549258C14.2807 0.403586 14.2229 0.26388 14.1198 0.160874C14.0168 0.0578682 13.8771 0 13.7315 0ZM12.3192 1.09852L7.14036 5.84617L1.96154 1.09852H12.3192ZM13.1822 9.88665H1.09852V1.79813L6.76892 6.99618C6.87026 7.0892 7.0028 7.14081 7.14036 7.14081C7.27791 7.14081 7.41046 7.0892 7.5118 6.99618L13.1822 1.79813V9.88665Z" fill="#4B5563"/>
</svg>
