<svg width="13" height="16" viewBox="0 0 13 16" fill="none" xmlns="http://www.w3.org/2000/svg">
<path d="M6.04184 3.29555C5.49868 3.29555 4.96771 3.45662 4.51608 3.75838C4.06446 4.06015 3.71246 4.48906 3.5046 4.99088C3.29674 5.4927 3.24235 6.04489 3.34832 6.57762C3.45429 7.11035 3.71584 7.59969 4.09992 7.98376C4.484 8.36784 4.97334 8.6294 5.50607 8.73537C6.0388 8.84133 6.59098 8.78695 7.0928 8.57909C7.59462 8.37123 8.02353 8.01923 8.3253 7.5676C8.62707 7.11598 8.78813 6.58501 8.78813 6.04184C8.78813 5.31348 8.49879 4.61495 7.98376 4.09992C7.46873 3.58489 6.7702 3.29555 6.04184 3.29555ZM6.04184 7.68962C5.71594 7.68962 5.39736 7.59298 5.12639 7.41192C4.85541 7.23086 4.64421 6.97351 4.5195 6.67242C4.39478 6.37133 4.36215 6.04001 4.42573 5.72038C4.48931 5.40074 4.64624 5.10713 4.87669 4.87669C5.10713 4.64624 5.40074 4.48931 5.72038 4.42573C6.04001 4.36215 6.37133 4.39478 6.67242 4.5195C6.97351 4.64421 7.23086 4.85541 7.41192 5.12639C7.59298 5.39736 7.68962 5.71594 7.68962 6.04184C7.68962 6.47886 7.51601 6.89798 7.207 7.207C6.89798 7.51601 6.47886 7.68962 6.04184 7.68962ZM6.04184 0C4.44 0.00181718 2.90429 0.63895 1.77162 1.77162C0.63895 2.90429 0.00181718 4.44 0 6.04184C0 8.19768 0.996217 10.4826 2.88361 12.6501C3.73168 13.6295 4.68617 14.5115 5.72945 15.2797C5.8218 15.3444 5.93183 15.3791 6.04459 15.3791C6.15735 15.3791 6.26737 15.3444 6.35973 15.2797C7.40108 14.5112 8.35373 13.6292 9.20008 12.6501C11.0847 10.4826 12.0837 8.19768 12.0837 6.04184C12.0819 4.44 11.4447 2.90429 10.3121 1.77162C9.17939 0.63895 7.64368 0.00181718 6.04184 0ZM6.04184 14.1434C4.90694 13.2509 1.09852 9.97247 1.09852 6.04184C1.09852 4.73079 1.61933 3.47344 2.54638 2.54638C3.47344 1.61933 4.73079 1.09852 6.04184 1.09852C7.35289 1.09852 8.61025 1.61933 9.5373 2.54638C10.4644 3.47344 10.9852 4.73079 10.9852 6.04184C10.9852 9.9711 7.17675 13.2509 6.04184 14.1434Z" fill="#4B5563"/>
</svg>
