<svg width="14" height="14" viewBox="0 0 14 14" fill="none" xmlns="http://www.w3.org/2000/svg">
<path d="M13.0703 9.23152L9.83585 7.78217L9.82693 7.77805C9.65901 7.70623 9.47584 7.67741 9.29399 7.69419C9.11213 7.71097 8.93733 7.77283 8.78539 7.87417C8.76751 7.88598 8.75031 7.89882 8.7339 7.91262L7.06278 9.33725C6.00409 8.82301 4.91106 7.73823 4.39682 6.69326L5.82352 4.99674C5.83725 4.97958 5.8503 4.96241 5.86265 4.94387C5.96181 4.79235 6.02198 4.61866 6.03779 4.43826C6.0536 4.25787 6.02457 4.07636 5.95328 3.90989V3.90166L4.49981 0.661717C4.40557 0.444256 4.24353 0.263103 4.03787 0.145304C3.83222 0.0275038 3.59398 -0.0206256 3.35872 0.00809994C2.42839 0.130521 1.57444 0.587409 0.956357 1.29343C0.338272 1.99945 -0.00167588 2.90632 6.21255e-06 3.84467C6.21255e-06 9.29606 4.43527 13.7313 9.88666 13.7313C10.825 13.733 11.7319 13.3931 12.4379 12.775C13.1439 12.1569 13.6008 11.3029 13.7232 10.3726C13.752 10.1374 13.704 9.89925 13.5863 9.69361C13.4686 9.48796 13.2876 9.32587 13.0703 9.23152ZM9.88666 12.6328C7.55668 12.6303 5.32286 11.7036 3.67532 10.056C2.02777 8.40847 1.10107 6.17465 1.09852 3.84467C1.09594 3.17422 1.33749 2.52576 1.77805 2.02038C2.21861 1.515 2.82807 1.18727 3.4926 1.09838C3.49233 1.10112 3.49233 1.10388 3.4926 1.10662L4.93441 4.33351L3.51526 6.03209C3.50086 6.04867 3.48777 6.06634 3.47613 6.08496C3.37281 6.2435 3.3122 6.42604 3.30017 6.6149C3.28814 6.80375 3.3251 6.99251 3.40747 7.16288C4.0295 8.4351 5.31134 9.70732 6.59729 10.3287C6.76891 10.4103 6.95876 10.4459 7.14829 10.4322C7.33783 10.4185 7.52056 10.3559 7.67864 10.2504C7.69627 10.2385 7.71323 10.2257 7.72945 10.2119L9.3985 8.788L12.6254 10.2332C12.6254 10.2332 12.6309 10.2332 12.6329 10.2332C12.5451 10.8987 12.2179 11.5094 11.7124 11.951C11.207 12.3927 10.5579 12.6351 9.88666 12.6328Z" fill="#4B5563"/>
</svg>
